<svg width="88" height="30" viewBox="0 0 88 30" fill="none" xmlns="http://www.w3.org/2000/svg">
<path d="M17.872 9.55467C17.872 9.93867 17.784 10.3027 17.608 10.6467C17.44 10.9827 17.204 11.2867 16.9 11.5587C16.596 11.8227 16.24 12.0467 15.832 12.2307C15.424 12.4147 14.98 12.5387 14.5 12.6027C14.62 12.9627 14.764 13.3347 14.932 13.7187C15.108 14.0947 15.296 14.4587 15.496 14.8107C15.696 15.1627 15.904 15.4867 16.12 15.7827C16.336 16.0787 16.548 16.3227 16.756 16.5147C16.716 16.5947 16.656 16.6747 16.576 16.7547C16.504 16.8347 16.416 16.9067 16.312 16.9707C16.216 17.0427 16.112 17.0987 16 17.1387C15.896 17.1867 15.796 17.2107 15.7 17.2107C15.524 17.2107 15.356 17.1267 15.196 16.9587C15.036 16.7907 14.872 16.5267 14.704 16.1667C14.544 15.7987 14.372 15.3267 14.188 14.7507C14.012 14.1667 13.816 13.4667 13.6 12.6507C13.512 12.6507 13.424 12.6507 13.336 12.6507C13.248 12.6507 13.18 12.6427 13.132 12.6267C13.076 12.5947 13.016 12.5387 12.952 12.4587C12.736 12.9227 12.544 13.3587 12.376 13.7667C12.208 14.1747 12.056 14.5707 11.92 14.9547C11.792 15.3307 11.676 15.6987 11.572 16.0587C11.476 16.4107 11.392 16.7707 11.32 17.1387C11.048 17.0747 10.812 16.9587 10.612 16.7907C10.412 16.6227 10.224 16.3867 10.048 16.0827C10.08 16.0107 10.112 15.9427 10.144 15.8787C10.184 15.8067 10.232 15.7107 10.288 15.5907C10.344 15.4627 10.412 15.3027 10.492 15.1107C10.58 14.9187 10.692 14.6627 10.828 14.3427C10.972 14.0227 11.14 13.6307 11.332 13.1667C11.532 12.7027 11.772 12.1387 12.052 11.4747C12.18 11.1787 12.288 10.9187 12.376 10.6947C12.472 10.4707 12.556 10.2587 12.628 10.0587C12.7 9.85067 12.764 9.64667 12.82 9.44667C12.884 9.23867 12.948 9.00267 13.012 8.73867C12.644 8.86667 12.3 9.01067 11.98 9.17067C11.668 9.32267 11.408 9.48667 11.2 9.66267C11.128 9.61467 11.052 9.54267 10.972 9.44667C10.9 9.35067 10.832 9.24667 10.768 9.13467C10.704 9.01467 10.648 8.89467 10.6 8.77467C10.552 8.65467 10.524 8.54667 10.516 8.45067C10.756 8.29067 11.048 8.14267 11.392 8.00667C11.744 7.87067 12.116 7.75467 12.508 7.65867C12.9 7.55467 13.3 7.47467 13.708 7.41867C14.116 7.36267 14.496 7.33467 14.848 7.33467C15.808 7.33467 16.552 7.53467 17.08 7.93467C17.608 8.32667 17.872 8.86667 17.872 9.55467ZM14.944 8.54667C14.888 8.61867 14.8 8.76267 14.68 8.97867C14.56 9.19467 14.42 9.45467 14.26 9.75867C14.108 10.0547 13.944 10.3787 13.768 10.7307C13.6 11.0827 13.436 11.4307 13.276 11.7747C13.876 11.7747 14.428 11.7187 14.932 11.6067C15.436 11.4947 15.872 11.3387 16.24 11.1387C16.608 10.9307 16.892 10.6907 17.092 10.4187C17.3 10.1387 17.404 9.83067 17.404 9.49467C17.404 9.09467 17.26 8.79067 16.972 8.58267C16.684 8.36667 16.24 8.25867 15.64 8.25867C15.504 8.25867 15.368 8.26667 15.232 8.28267C15.096 8.29067 14.952 8.30267 14.8 8.31867L14.944 8.54667ZM21.753 11.1987C21.721 11.6947 21.633 12.1227 21.489 12.4827C21.345 12.8347 21.137 13.1467 20.865 13.4187C20.601 13.6827 20.277 13.9227 19.893 14.1387C19.509 14.3547 19.061 14.5627 18.549 14.7627C18.549 14.8107 18.545 14.8627 18.537 14.9187C18.537 14.9667 18.537 15.0187 18.537 15.0747C18.537 15.1787 18.545 15.2867 18.561 15.3987C18.577 15.5107 18.605 15.6147 18.645 15.7107C18.685 15.8067 18.741 15.8867 18.813 15.9507C18.885 16.0067 18.977 16.0347 19.089 16.0347C19.305 16.0347 19.517 15.9867 19.725 15.8907C19.933 15.7947 20.129 15.6787 20.313 15.5427C20.505 15.3987 20.681 15.2467 20.841 15.0867C21.009 14.9187 21.157 14.7667 21.285 14.6307C21.365 14.7027 21.433 14.7707 21.489 14.8347C21.129 15.3147 20.733 15.7147 20.301 16.0347C19.877 16.3467 19.473 16.5467 19.089 16.6347C18.537 16.5707 18.105 16.3707 17.793 16.0347C17.489 15.6907 17.337 15.2787 17.337 14.7987C17.337 14.4707 17.381 14.1387 17.469 13.8027C17.565 13.4587 17.693 13.1307 17.853 12.8187C18.021 12.4987 18.213 12.1987 18.429 11.9187C18.653 11.6387 18.889 11.3947 19.137 11.1867C19.393 10.9787 19.653 10.8147 19.917 10.6947C20.189 10.5747 20.457 10.5147 20.721 10.5147C21.089 10.5627 21.433 10.7907 21.753 11.1987ZM20.925 11.5947C20.709 11.6267 20.485 11.7147 20.253 11.8587C20.021 12.0027 19.801 12.1947 19.593 12.4347C19.393 12.6747 19.209 12.9547 19.041 13.2747C18.873 13.5947 18.741 13.9387 18.645 14.3067C19.285 13.9867 19.817 13.5947 20.241 13.1307C20.665 12.6587 20.893 12.1467 20.925 11.5947ZM26.4485 11.3907C26.4405 11.5427 26.4125 11.7027 26.3645 11.8707C26.3245 12.0307 26.2725 12.1787 26.2085 12.3147C26.1445 12.4427 26.0765 12.5507 26.0045 12.6387C25.9325 12.7267 25.8645 12.7707 25.8005 12.7707C25.7125 12.7627 25.6605 12.7027 25.6445 12.5907C25.6445 12.5667 25.6525 12.5307 25.6685 12.4827C25.6925 12.4267 25.7165 12.3667 25.7405 12.3027C25.7645 12.2387 25.7845 12.1747 25.8005 12.1107C25.8245 12.0467 25.8365 11.9907 25.8365 11.9427C25.8365 11.8307 25.8085 11.7387 25.7525 11.6667C25.7045 11.5867 25.6365 11.5467 25.5485 11.5467C25.2285 11.5467 24.9845 11.7467 24.8165 12.1467C24.6485 12.5467 24.5645 13.1347 24.5645 13.9107C24.5645 13.9907 24.5685 14.0387 24.5765 14.0547C24.7445 14.0467 24.8925 14.0427 25.0205 14.0427C25.1565 14.0347 25.2885 14.0307 25.4165 14.0307C25.4245 14.0467 25.4285 14.0787 25.4285 14.1267C25.4285 14.1987 25.4125 14.2507 25.3805 14.2827C25.1965 14.3227 25.0485 14.3587 24.9365 14.3907C24.8325 14.4147 24.7525 14.4387 24.6965 14.4627C24.6405 14.4867 24.6045 14.5147 24.5885 14.5467C24.5805 14.5707 24.5765 14.6067 24.5765 14.6547C24.5765 14.7187 24.5765 14.7827 24.5765 14.8467C24.5845 14.9107 24.5885 14.9907 24.5885 15.0867C24.5885 15.7587 24.4045 16.2987 24.0365 16.7067C23.6765 17.1147 23.1725 17.3507 22.5245 17.4147C22.4125 17.4067 22.2965 17.3747 22.1765 17.3187C22.0565 17.2627 21.9405 17.1907 21.8285 17.1027C21.7245 17.0147 21.6325 16.9147 21.5525 16.8027C21.4725 16.6987 21.4165 16.5907 21.3845 16.4787C21.3845 16.1747 21.4485 15.8867 21.5765 15.6147C21.7045 15.3347 21.8765 15.0907 22.0925 14.8827C22.3165 14.6667 22.5765 14.4947 22.8725 14.3667C23.1765 14.2307 23.5045 14.1507 23.8565 14.1267C23.8565 13.9267 23.8365 13.7307 23.7965 13.5387C23.7565 13.3467 23.7125 13.1627 23.6645 12.9867C23.6245 12.8027 23.5845 12.6267 23.5445 12.4587C23.5045 12.2827 23.4845 12.1107 23.4845 11.9427C23.4845 11.7267 23.5285 11.5147 23.6165 11.3067C23.7045 11.0907 23.8205 10.8947 23.9645 10.7187C24.1085 10.5347 24.2765 10.3787 24.4685 10.2507C24.6605 10.1227 24.8605 10.0347 25.0685 9.98667C25.1565 10.0107 25.2725 10.0827 25.4165 10.2027C25.5685 10.3147 25.7165 10.4427 25.8605 10.5867C26.0045 10.7307 26.1325 10.8787 26.2445 11.0307C26.3565 11.1747 26.4245 11.2947 26.4485 11.3907ZM22.4885 16.8627C22.6805 16.7827 22.8605 16.6667 23.0285 16.5147C23.2045 16.3627 23.3565 16.1907 23.4845 15.9987C23.6125 15.8067 23.7125 15.6027 23.7845 15.3867C23.8645 15.1707 23.9045 14.9587 23.9045 14.7507C23.7445 14.7747 23.5685 14.8507 23.3765 14.9787C23.1845 15.0987 23.0045 15.2467 22.8365 15.4227C22.6685 15.5907 22.5285 15.7667 22.4165 15.9507C22.3045 16.1347 22.2485 16.2947 22.2485 16.4307C22.2485 16.6067 22.3285 16.7507 22.4885 16.8627ZM27.873 16.5867C27.417 16.5387 27.053 16.3387 26.781 15.9867C26.509 15.6347 26.373 15.1867 26.373 14.6427C26.373 14.3227 26.421 13.9907 26.517 13.6467C26.613 13.3027 26.749 12.9707 26.925 12.6507C27.101 12.3227 27.309 12.0147 27.549 11.7267C27.789 11.4387 28.049 11.1907 28.329 10.9827C28.769 10.6547 29.181 10.4907 29.565 10.4907C29.821 10.6267 30.073 10.9107 30.321 11.3427C30.361 11.3427 30.397 11.3427 30.429 11.3427C30.461 11.3347 30.497 11.3307 30.537 11.3307C30.961 11.3307 31.173 11.7067 31.173 12.4587C31.173 12.9627 31.089 13.4427 30.921 13.8987C30.761 14.3467 30.533 14.7547 30.237 15.1227C29.949 15.4907 29.601 15.8027 29.193 16.0587C28.793 16.3067 28.353 16.4827 27.873 16.5867ZM28.485 12.8067C28.349 12.9907 28.221 13.1907 28.101 13.4067C27.981 13.6227 27.877 13.8427 27.789 14.0667C27.701 14.2827 27.633 14.4947 27.585 14.7027C27.537 14.9027 27.513 15.0827 27.513 15.2427C27.513 15.4347 27.545 15.6187 27.609 15.7947C27.673 15.9707 27.745 16.0707 27.825 16.0947C28.185 16.0147 28.513 15.8667 28.809 15.6507C29.113 15.4267 29.373 15.1507 29.589 14.8227C29.813 14.4947 29.985 14.1227 30.105 13.7067C30.233 13.2907 30.297 12.8467 30.297 12.3747C30.297 12.1667 30.285 12.0027 30.261 11.8827C30.237 11.7627 30.197 11.6587 30.141 11.5707C29.789 11.6747 29.473 11.8427 29.193 12.0747C28.921 12.3067 28.685 12.5507 28.485 12.8067ZM33.6978 10.3467C33.9058 10.4107 34.1018 10.5547 34.2858 10.7787C34.4698 10.9947 34.6058 11.2347 34.6938 11.4987C34.6058 11.7147 34.4698 11.9747 34.2858 12.2787C34.1018 12.5827 33.9178 12.8947 33.7338 13.2147C33.5498 13.5267 33.3818 13.8267 33.2298 14.1147C33.0858 14.3947 33.0018 14.6267 32.9778 14.8107C33.1058 14.6747 33.2458 14.5187 33.3978 14.3427C33.5578 14.1587 33.7098 13.9787 33.8538 13.8027C34.0058 13.6187 34.1458 13.4547 34.2738 13.3107C34.4018 13.1587 34.5018 13.0467 34.5738 12.9747C34.7258 12.8147 34.9058 12.6307 35.1138 12.4227C35.3218 12.2067 35.5378 12.0067 35.7618 11.8227C35.9938 11.6307 36.2258 11.4707 36.4578 11.3427C36.6898 11.2067 36.9018 11.1387 37.0938 11.1387C37.3018 11.1387 37.4738 11.2107 37.6098 11.3547C37.7538 11.4907 37.8658 11.6347 37.9458 11.7867C37.9458 11.8027 37.9138 11.8267 37.8498 11.8587C37.7938 11.8827 37.7098 11.9587 37.5978 12.0867C37.4858 12.2307 37.3578 12.4307 37.2138 12.6867C37.0778 12.9347 36.9418 13.2067 36.8058 13.5027C36.6778 13.7907 36.5698 14.0867 36.4818 14.3907C36.3938 14.6947 36.3498 14.9707 36.3498 15.2187C36.3498 15.4187 36.3738 15.5467 36.4218 15.6027C36.4778 15.6587 36.5538 15.6867 36.6498 15.6867C36.7378 15.6867 36.8298 15.6667 36.9258 15.6267C37.0218 15.5867 37.0978 15.5667 37.1538 15.5667C37.1858 15.5827 37.2098 15.6187 37.2258 15.6747C37.2498 15.7227 37.2618 15.7667 37.2618 15.8067C37.1978 15.8627 37.1218 15.9187 37.0338 15.9747C36.9458 16.0307 36.8538 16.0827 36.7578 16.1307C36.6618 16.1787 36.5658 16.2187 36.4698 16.2507C36.3818 16.2827 36.3018 16.2987 36.2298 16.2987C35.9978 16.2987 35.8058 16.2627 35.6538 16.1907C35.5098 16.1267 35.3938 16.0387 35.3058 15.9267C35.2258 15.8147 35.1698 15.6827 35.1378 15.5307C35.1058 15.3707 35.0898 15.2027 35.0898 15.0267C35.0898 14.9307 35.0978 14.8227 35.1138 14.7027C35.1298 14.5827 35.1618 14.4427 35.2098 14.2827C35.2578 14.1147 35.3258 13.9187 35.4138 13.6947C35.5018 13.4627 35.6138 13.1867 35.7498 12.8667C35.7338 12.8667 35.6258 12.9227 35.4258 13.0347C35.2258 13.1467 35.0098 13.3187 34.7778 13.5507C34.4018 13.9107 34.0618 14.2667 33.7578 14.6187C33.4618 14.9707 33.1578 15.3627 32.8458 15.7947C32.6698 16.0427 32.5138 16.2507 32.3778 16.4187C32.2498 16.5947 32.1378 16.7107 32.0418 16.7667C31.8738 16.6707 31.7498 16.5347 31.6698 16.3587C31.5898 16.1907 31.5298 16.0147 31.4898 15.8307C31.4898 15.6787 31.5098 15.4867 31.5498 15.2547C31.5978 15.0227 31.6578 14.7667 31.7298 14.4867C31.8098 14.1987 31.9058 13.8987 32.0178 13.5867C32.1298 13.2747 32.2538 12.9627 32.3898 12.6507C32.6938 11.9467 32.9698 11.3947 33.2178 10.9947C33.4738 10.5947 33.6338 10.3787 33.6978 10.3467ZM42.3743 11.3187C42.4543 11.3187 42.5463 11.3347 42.6503 11.3667C42.7623 11.3907 42.8623 11.4267 42.9503 11.4747C43.0383 11.5147 43.1103 11.5587 43.1663 11.6067C43.2303 11.6547 43.2623 11.6987 43.2623 11.7387C43.1023 12.0747 42.9543 12.4147 42.8183 12.7587C42.6823 13.0947 42.5663 13.4187 42.4703 13.7307C42.3743 14.0427 42.2983 14.3347 42.2423 14.6067C42.1943 14.8787 42.1703 15.1147 42.1703 15.3147C42.1703 15.5387 42.1943 15.7267 42.2423 15.8787C42.2903 16.0227 42.3703 16.1267 42.4823 16.1907C42.3863 16.2547 42.2623 16.3067 42.1103 16.3467C41.9583 16.3867 41.8223 16.4067 41.7023 16.4067C41.2703 16.4067 41.0543 16.1107 41.0543 15.5187C41.0543 15.0627 41.2063 14.4387 41.5103 13.6467C41.3503 14.0147 41.1663 14.3627 40.9583 14.6907C40.7503 15.0107 40.5383 15.2947 40.3223 15.5427C40.1063 15.7907 39.8863 15.9947 39.6623 16.1547C39.4463 16.3067 39.2463 16.3987 39.0623 16.4307C38.7663 16.4147 38.5263 16.2747 38.3423 16.0107C38.1583 15.7387 38.0663 15.3947 38.0663 14.9787C38.0663 14.5307 38.1623 14.0587 38.3543 13.5627C38.5463 13.0667 38.7903 12.6067 39.0863 12.1827C39.3903 11.7587 39.7183 11.4067 40.0703 11.1267C40.4223 10.8387 40.7623 10.6867 41.0903 10.6707C41.1703 10.6947 41.2583 10.7427 41.3543 10.8147C41.4583 10.8867 41.5543 10.9707 41.6423 11.0667C41.7383 11.1627 41.8183 11.2627 41.8823 11.3667C41.9463 11.4627 41.9823 11.5467 41.9903 11.6187C41.6703 11.6667 41.3383 11.8227 40.9943 12.0867C40.6583 12.3507 40.3503 12.6707 40.0703 13.0467C39.7983 13.4147 39.5743 13.8107 39.3983 14.2347C39.2223 14.6587 39.1343 15.0547 39.1343 15.4227C39.1343 15.5747 39.1903 15.6707 39.3023 15.7107C39.5343 15.6627 39.8023 15.4667 40.1063 15.1227C40.4103 14.7707 40.7783 14.2307 41.2103 13.5027C41.2903 13.3587 41.3783 13.1987 41.4743 13.0227C41.5783 12.8467 41.6823 12.6627 41.7863 12.4707C41.8903 12.2787 41.9903 12.0867 42.0863 11.8947C42.1903 11.6947 42.2863 11.5027 42.3743 11.3187ZM45.815 10.3467C46.023 10.4107 46.219 10.5547 46.403 10.7787C46.587 10.9947 46.723 11.2347 46.811 11.4987C46.723 11.7147 46.587 11.9747 46.403 12.2787C46.219 12.5827 46.035 12.8947 45.851 13.2147C45.667 13.5267 45.499 13.8267 45.347 14.1147C45.203 14.3947 45.119 14.6267 45.095 14.8107C45.223 14.6747 45.363 14.5187 45.515 14.3427C45.675 14.1587 45.827 13.9787 45.971 13.8027C46.123 13.6187 46.263 13.4547 46.391 13.3107C46.519 13.1587 46.619 13.0467 46.691 12.9747C46.843 12.8147 47.023 12.6307 47.231 12.4227C47.439 12.2067 47.655 12.0067 47.879 11.8227C48.111 11.6307 48.343 11.4707 48.575 11.3427C48.807 11.2067 49.019 11.1387 49.211 11.1387C49.419 11.1387 49.591 11.2107 49.727 11.3547C49.871 11.4907 49.983 11.6347 50.063 11.7867C50.063 11.8027 50.031 11.8267 49.967 11.8587C49.911 11.8827 49.827 11.9587 49.715 12.0867C49.603 12.2307 49.475 12.4307 49.331 12.6867C49.195 12.9347 49.059 13.2067 48.923 13.5027C48.795 13.7907 48.687 14.0867 48.599 14.3907C48.511 14.6947 48.467 14.9707 48.467 15.2187C48.467 15.4187 48.491 15.5467 48.539 15.6027C48.595 15.6587 48.671 15.6867 48.767 15.6867C48.855 15.6867 48.947 15.6667 49.043 15.6267C49.139 15.5867 49.215 15.5667 49.271 15.5667C49.303 15.5827 49.327 15.6187 49.343 15.6747C49.367 15.7227 49.379 15.7667 49.379 15.8067C49.315 15.8627 49.239 15.9187 49.151 15.9747C49.063 16.0307 48.971 16.0827 48.875 16.1307C48.779 16.1787 48.683 16.2187 48.587 16.2507C48.499 16.2827 48.419 16.2987 48.347 16.2987C48.115 16.2987 47.923 16.2627 47.771 16.1907C47.627 16.1267 47.511 16.0387 47.423 15.9267C47.343 15.8147 47.287 15.6827 47.255 15.5307C47.223 15.3707 47.207 15.2027 47.207 15.0267C47.207 14.9307 47.215 14.8227 47.231 14.7027C47.247 14.5827 47.279 14.4427 47.327 14.2827C47.375 14.1147 47.443 13.9187 47.531 13.6947C47.619 13.4627 47.731 13.1867 47.867 12.8667C47.851 12.8667 47.743 12.9227 47.543 13.0347C47.343 13.1467 47.127 13.3187 46.895 13.5507C46.519 13.9107 46.179 14.2667 45.875 14.6187C45.579 14.9707 45.275 15.3627 44.963 15.7947C44.787 16.0427 44.631 16.2507 44.495 16.4187C44.367 16.5947 44.255 16.7107 44.159 16.7667C43.991 16.6707 43.867 16.5347 43.787 16.3587C43.707 16.1907 43.647 16.0147 43.607 15.8307C43.607 15.6787 43.627 15.4867 43.667 15.2547C43.715 15.0227 43.775 14.7667 43.847 14.4867C43.927 14.1987 44.023 13.8987 44.135 13.5867C44.247 13.2747 44.371 12.9627 44.507 12.6507C44.811 11.9467 45.087 11.3947 45.335 10.9947C45.591 10.5947 45.751 10.3787 45.815 10.3467ZM51.0595 11.5707C51.0195 11.5227 50.9835 11.4227 50.9515 11.2707C50.9195 11.1107 50.9035 10.9747 50.9035 10.8627C51.1115 10.8787 51.3115 10.8947 51.5035 10.9107C51.6955 10.9187 51.8715 10.9267 52.0315 10.9347C52.1515 10.6947 52.2795 10.4587 52.4155 10.2267C52.5595 9.98667 52.6955 9.77067 52.8235 9.57867C52.9595 9.37867 53.0835 9.21067 53.1955 9.07467C53.3155 8.93867 53.4075 8.85067 53.4715 8.81067C53.5515 8.81067 53.6515 8.82667 53.7715 8.85867C53.8995 8.88267 54.0275 8.91867 54.1555 8.96667C54.2835 9.00667 54.3995 9.05067 54.5035 9.09867C54.6075 9.14667 54.6795 9.19467 54.7195 9.24267C54.4795 9.54667 54.2715 9.83067 54.0955 10.0947C53.9275 10.3507 53.7435 10.6467 53.5435 10.9827C53.7035 10.9827 53.8635 10.9787 54.0235 10.9707C54.1915 10.9627 54.3595 10.9507 54.5275 10.9347C54.5675 10.9747 54.5995 11.0267 54.6235 11.0907C54.6475 11.1467 54.6595 11.2067 54.6595 11.2707C54.2675 11.4147 53.7915 11.4947 53.2315 11.5107C53.0315 11.8947 52.8515 12.2787 52.6915 12.6627C52.5395 13.0387 52.4075 13.4027 52.2955 13.7547C52.1915 14.1067 52.1075 14.4387 52.0435 14.7507C51.9875 15.0627 51.9595 15.3427 51.9595 15.5907C51.9595 15.9427 52.0915 16.1387 52.3555 16.1787C52.5955 16.1467 52.8235 16.0867 53.0395 15.9987C53.2555 15.9107 53.4475 15.7987 53.6155 15.6627C53.6635 15.7347 53.6915 15.7947 53.6995 15.8427C53.6515 15.9147 53.5675 15.9987 53.4475 16.0947C53.3355 16.1907 53.2115 16.2827 53.0755 16.3707C52.9395 16.4667 52.8075 16.5467 52.6795 16.6107C52.5515 16.6747 52.4555 16.7107 52.3915 16.7187C52.1915 16.7107 51.9915 16.6667 51.7915 16.5867C51.5915 16.5067 51.4075 16.4067 51.2395 16.2867C51.0795 16.1667 50.9475 16.0347 50.8435 15.8907C50.7395 15.7387 50.6875 15.5907 50.6875 15.4467C50.6875 15.2547 50.7115 15.0147 50.7595 14.7267C50.8155 14.4307 50.8915 14.1107 50.9875 13.7667C51.0835 13.4227 51.1955 13.0627 51.3235 12.6867C51.4515 12.3107 51.5915 11.9387 51.7435 11.5707H51.0595ZM59.0136 16.5387C58.9736 16.2107 58.9416 15.8547 58.9176 15.4707C58.9016 15.0787 58.8936 14.7147 58.8936 14.3787C58.8936 13.8427 58.9096 13.3307 58.9416 12.8427C58.9816 12.3467 59.0256 11.8307 59.0736 11.2947C59.1296 10.7507 59.1896 10.1627 59.2536 9.53067C59.3176 8.89067 59.3736 8.15467 59.4216 7.32267C59.5256 7.32267 59.6736 7.35467 59.8656 7.41867C60.0656 7.47467 60.2656 7.54267 60.4656 7.62267C60.6656 7.70267 60.8416 7.78667 60.9936 7.87467C61.1456 7.95467 61.2336 8.02267 61.2576 8.07867C61.1216 8.39067 60.9976 8.80267 60.8856 9.31467C60.7816 9.81867 60.6936 10.3707 60.6216 10.9707C60.5496 11.5707 60.4936 12.1867 60.4536 12.8187C60.4136 13.4507 60.3936 14.0427 60.3936 14.5947C60.3936 14.8507 60.3976 15.1027 60.4056 15.3507C60.4136 15.5987 60.4256 15.8267 60.4416 16.0347C60.6096 15.7867 60.8016 15.4347 61.0176 14.9787C61.2416 14.5147 61.4696 13.9987 61.7016 13.4307C61.9416 12.8627 62.1776 12.2707 62.4096 11.6547C62.6496 11.0307 62.8696 10.4387 63.0696 9.87867C63.2696 9.31067 63.4376 8.80267 63.5736 8.35467C63.7176 7.89867 63.8176 7.55467 63.8736 7.32267C63.9776 7.32267 64.1296 7.35467 64.3296 7.41867C64.5376 7.47467 64.7376 7.54267 64.9296 7.62267C65.1296 7.70267 65.3056 7.78667 65.4576 7.87467C65.6096 7.95467 65.6936 8.02267 65.7096 8.07867C65.5736 8.39067 65.4496 8.80267 65.3376 9.31467C65.2336 9.81867 65.1456 10.3707 65.0736 10.9707C65.0016 11.5707 64.9456 12.1867 64.9056 12.8187C64.8656 13.4507 64.8456 14.0427 64.8456 14.5947C64.8456 14.8267 64.8456 15.0587 64.8456 15.2907C64.8536 15.5147 64.8656 15.7187 64.8816 15.9027C65.1376 15.2387 65.4016 14.5827 65.6736 13.9347C65.9536 13.2787 66.2296 12.6547 66.5016 12.0627C66.7736 11.4627 67.0376 10.9067 67.2936 10.3947C67.5496 9.87467 67.7856 9.41467 68.0016 9.01467C68.2176 8.60667 68.4056 8.27067 68.5656 8.00667C68.7256 7.74267 68.8496 7.56667 68.9376 7.47867C69.1216 7.50267 69.3096 7.57067 69.5016 7.68267C69.7016 7.78667 69.8776 7.92267 70.0296 8.09067C69.7976 8.27467 69.5336 8.57867 69.2376 9.00267C68.9416 9.41867 68.6376 9.90267 68.3256 10.4547C68.0136 11.0067 67.6976 11.5947 67.3776 12.2187C67.0656 12.8427 66.7736 13.4507 66.5016 14.0427C66.2296 14.6347 65.9856 15.1867 65.7696 15.6987C65.5616 16.2107 65.4016 16.6227 65.2896 16.9347C65.0816 17.0307 64.8776 17.0787 64.6776 17.0787C64.4216 17.0467 64.1776 16.9827 63.9456 16.8867C63.7216 16.7907 63.5616 16.6747 63.4656 16.5387C63.4416 16.4107 63.4216 16.2627 63.4056 16.0947C63.3896 15.9187 63.3776 15.7467 63.3696 15.5787C63.3616 15.4107 63.3536 15.2507 63.3456 15.0987C63.3456 14.9387 63.3456 14.8027 63.3456 14.6907C63.3456 13.9787 63.3736 13.2547 63.4296 12.5187C63.4856 11.7747 63.5536 10.9787 63.6336 10.1307C63.4496 10.6747 63.2456 11.2587 63.0216 11.8827C62.7976 12.5067 62.5616 13.1267 62.3136 13.7427C62.0736 14.3507 61.8256 14.9347 61.5696 15.4947C61.3216 16.0467 61.0776 16.5267 60.8376 16.9347C60.6296 17.0307 60.4256 17.0787 60.2256 17.0787C59.9696 17.0467 59.7256 16.9827 59.4936 16.8867C59.2696 16.7907 59.1096 16.6747 59.0136 16.5387ZM72.4446 11.3187C72.5246 11.3187 72.6166 11.3347 72.7206 11.3667C72.8326 11.3907 72.9326 11.4267 73.0206 11.4747C73.1086 11.5147 73.1806 11.5587 73.2366 11.6067C73.3006 11.6547 73.3326 11.6987 73.3326 11.7387C73.1726 12.0747 73.0246 12.4147 72.8886 12.7587C72.7526 13.0947 72.6366 13.4187 72.5406 13.7307C72.4446 14.0427 72.3686 14.3347 72.3126 14.6067C72.2646 14.8787 72.2406 15.1147 72.2406 15.3147C72.2406 15.5387 72.2646 15.7267 72.3126 15.8787C72.3606 16.0227 72.4406 16.1267 72.5526 16.1907C72.4566 16.2547 72.3326 16.3067 72.1806 16.3467C72.0286 16.3867 71.8926 16.4067 71.7726 16.4067C71.3406 16.4067 71.1246 16.1107 71.1246 15.5187C71.1246 15.0627 71.2766 14.4387 71.5806 13.6467C71.4206 14.0147 71.2366 14.3627 71.0286 14.6907C70.8206 15.0107 70.6086 15.2947 70.3926 15.5427C70.1766 15.7907 69.9566 15.9947 69.7326 16.1547C69.5166 16.3067 69.3166 16.3987 69.1326 16.4307C68.8366 16.4147 68.5966 16.2747 68.4126 16.0107C68.2286 15.7387 68.1366 15.3947 68.1366 14.9787C68.1366 14.5307 68.2326 14.0587 68.4246 13.5627C68.6166 13.0667 68.8606 12.6067 69.1566 12.1827C69.4606 11.7587 69.7886 11.4067 70.1406 11.1267C70.4926 10.8387 70.8326 10.6867 71.1606 10.6707C71.2406 10.6947 71.3286 10.7427 71.4246 10.8147C71.5286 10.8867 71.6246 10.9707 71.7126 11.0667C71.8086 11.1627 71.8886 11.2627 71.9526 11.3667C72.0166 11.4627 72.0526 11.5467 72.0606 11.6187C71.7406 11.6667 71.4086 11.8227 71.0646 12.0867C70.7286 12.3507 70.4206 12.6707 70.1406 13.0467C69.8686 13.4147 69.6446 13.8107 69.4686 14.2347C69.2926 14.6587 69.2046 15.0547 69.2046 15.4227C69.2046 15.5747 69.2606 15.6707 69.3726 15.7107C69.6046 15.6627 69.8726 15.4667 70.1766 15.1227C70.4806 14.7707 70.8486 14.2307 71.2806 13.5027C71.3606 13.3587 71.4486 13.1987 71.5446 13.0227C71.6486 12.8467 71.7526 12.6627 71.8566 12.4707C71.9606 12.2787 72.0606 12.0867 72.1566 11.8947C72.2606 11.6947 72.3566 11.5027 72.4446 11.3187ZM78.4065 14.3067C78.2225 14.8907 78.0385 15.4227 77.8545 15.9027C77.6705 16.3827 77.4745 16.8227 77.2665 17.2227C77.0585 17.6307 76.8345 18.0027 76.5945 18.3387C76.3545 18.6827 76.0905 19.0067 75.8025 19.3107C75.4345 19.6947 75.0545 19.9867 74.6625 20.1867C74.2705 20.3947 73.8785 20.4987 73.4865 20.4987C73.2865 20.4987 73.0865 20.4747 72.8865 20.4267C72.6945 20.3867 72.5145 20.3267 72.3465 20.2467C72.1705 20.1747 72.0185 20.0867 71.8905 19.9827C71.7545 19.8867 71.6585 19.7827 71.6025 19.6707C71.6025 19.5747 71.6585 19.4907 71.7705 19.4187C71.8665 19.5067 71.9465 19.5747 72.0105 19.6227C72.0745 19.6707 72.1385 19.7107 72.2025 19.7427C72.2585 19.7747 72.3225 19.7947 72.3945 19.8027C72.4585 19.8107 72.5345 19.8147 72.6225 19.8147C73.0785 19.8147 73.5225 19.6787 73.9545 19.4067C74.3945 19.1427 74.8065 18.7627 75.1905 18.2667C75.5825 17.7787 75.9385 17.1827 76.2585 16.4787C76.5785 15.7827 76.8505 15.0027 77.0745 14.1387C76.9705 14.2987 76.8425 14.4947 76.6905 14.7267C76.5385 14.9587 76.3705 15.1907 76.1865 15.4227C76.0025 15.6467 75.8105 15.8507 75.6105 16.0347C75.4185 16.2187 75.2305 16.3427 75.0465 16.4067C74.9185 16.3987 74.7825 16.3707 74.6385 16.3227C74.5025 16.2827 74.3705 16.2227 74.2425 16.1427C74.1225 16.0627 74.0145 15.9667 73.9185 15.8547C73.8225 15.7427 73.7585 15.6147 73.7265 15.4707C73.7265 15.2387 73.7345 15.0547 73.7505 14.9187C73.7665 14.7747 73.7945 14.6187 73.8345 14.4507C73.9065 14.1467 74.0105 13.8027 74.1465 13.4187C74.2905 13.0347 74.4545 12.6587 74.6385 12.2907C74.8305 11.9147 75.0385 11.5667 75.2625 11.2467C75.4945 10.9187 75.7345 10.6627 75.9825 10.4787C76.0465 10.4787 76.1265 10.4867 76.2225 10.5027C76.3185 10.5107 76.4185 10.5307 76.5225 10.5627C76.6265 10.5947 76.7265 10.6347 76.8225 10.6827C76.9185 10.7227 77.0025 10.7787 77.0745 10.8507C76.9865 10.9307 76.7945 11.1987 76.4985 11.6547C76.2025 12.1107 75.8745 12.7667 75.5145 13.6227C75.4745 13.7107 75.4265 13.8387 75.3705 14.0067C75.3145 14.1747 75.2585 14.3507 75.2025 14.5347C75.1545 14.7187 75.1105 14.8987 75.0705 15.0747C75.0305 15.2507 75.0105 15.3907 75.0105 15.4947C75.0105 15.5587 75.0185 15.6067 75.0345 15.6387C75.0585 15.6707 75.0785 15.6947 75.0945 15.7107C75.2385 15.6867 75.4305 15.5707 75.6705 15.3627C75.9105 15.1467 76.1825 14.8147 76.4865 14.3667C76.6785 14.0787 76.8545 13.7947 77.0145 13.5147C77.1745 13.2267 77.3305 12.9387 77.4825 12.6507C77.6425 12.3627 77.8065 12.0667 77.9745 11.7627C78.1425 11.4587 78.3225 11.1467 78.5145 10.8267C78.6185 10.8267 78.7305 10.8387 78.8505 10.8627C78.9705 10.8867 79.0865 10.9187 79.1985 10.9587C79.3105 10.9907 79.4065 11.0307 79.4865 11.0787C79.5745 11.1187 79.6385 11.1627 79.6785 11.2107C79.4305 11.7387 79.1985 12.2547 78.9825 12.7587C78.7665 13.2627 78.5745 13.7787 78.4065 14.3067Z" fill="black"/>
<path d="M40.9533 21.7587C40.9533 21.4547 41.0146 21.1613 41.1373 20.8787C41.2653 20.5907 41.4306 20.3373 41.6333 20.1187C41.8413 19.8947 42.076 19.716 42.3373 19.5827C42.604 19.444 42.8786 19.3747 43.1613 19.3747C43.4386 19.3747 43.652 19.444 43.8013 19.5827C43.9506 19.7213 44.0253 19.9187 44.0253 20.1747C44.0253 20.2973 44.0066 20.4173 43.9693 20.5347C43.9373 20.6467 43.892 20.748 43.8333 20.8387C43.78 20.9293 43.716 21.004 43.6413 21.0627C43.5666 21.116 43.492 21.1427 43.4173 21.1427C43.3533 21.1427 43.2866 21.124 43.2173 21.0867C43.1533 21.044 43.1 20.9907 43.0573 20.9267C43.4146 20.6013 43.5933 20.3053 43.5933 20.0387C43.5933 19.884 43.532 19.8067 43.4093 19.8067C43.3026 19.8067 43.1693 19.8573 43.0093 19.9587C42.8493 20.06 42.6946 20.1933 42.5453 20.3587C42.316 20.6147 42.14 20.9 42.0173 21.2147C41.9 21.524 41.8413 21.8493 41.8413 22.1907C41.8413 22.6227 41.9373 22.8813 42.1293 22.9667C42.2093 22.956 42.3026 22.932 42.4093 22.8947C42.516 22.8573 42.6306 22.8093 42.7533 22.7507C42.876 22.6867 43.0013 22.6147 43.1293 22.5347C43.2626 22.4547 43.3906 22.3693 43.5133 22.2787C43.5346 22.2947 43.5533 22.3187 43.5693 22.3507C43.5853 22.3827 43.5933 22.412 43.5933 22.4387C43.5026 22.5507 43.3986 22.66 43.2813 22.7667C43.164 22.8733 43.0413 22.972 42.9133 23.0627C42.7853 23.148 42.66 23.22 42.5373 23.2787C42.42 23.3427 42.316 23.3827 42.2253 23.3987C42.0493 23.3827 41.884 23.3267 41.7293 23.2307C41.5746 23.14 41.4386 23.02 41.3213 22.8707C41.2093 22.7213 41.1186 22.5507 41.0493 22.3587C40.9853 22.1667 40.9533 21.9667 40.9533 21.7587ZM45.2087 23.4467C44.9047 23.4147 44.662 23.2813 44.4807 23.0467C44.2993 22.812 44.2087 22.5133 44.2087 22.1507C44.2087 21.9373 44.2407 21.716 44.3047 21.4867C44.3687 21.2573 44.4593 21.036 44.5767 20.8227C44.694 20.604 44.8327 20.3987 44.9927 20.2067C45.1527 20.0147 45.326 19.8493 45.5127 19.7107C45.806 19.492 46.0807 19.3827 46.3367 19.3827C46.5073 19.4733 46.6753 19.6627 46.8407 19.9507C46.8673 19.9507 46.8913 19.9507 46.9127 19.9507C46.934 19.9453 46.958 19.9427 46.9847 19.9427C47.2673 19.9427 47.4087 20.1933 47.4087 20.6947C47.4087 21.0307 47.3527 21.3507 47.2407 21.6547C47.134 21.9533 46.982 22.2253 46.7847 22.4707C46.5927 22.716 46.3607 22.924 46.0887 23.0947C45.822 23.26 45.5287 23.3773 45.2087 23.4467ZM45.6167 20.9267C45.526 21.0493 45.4407 21.1827 45.3607 21.3267C45.2807 21.4707 45.2113 21.6173 45.1527 21.7667C45.094 21.9107 45.0487 22.052 45.0167 22.1907C44.9847 22.324 44.9687 22.444 44.9687 22.5507C44.9687 22.6787 44.99 22.8013 45.0327 22.9187C45.0753 23.036 45.1233 23.1027 45.1767 23.1187C45.4167 23.0653 45.6353 22.9667 45.8327 22.8227C46.0353 22.6733 46.2087 22.4893 46.3527 22.2707C46.502 22.052 46.6167 21.804 46.6967 21.5267C46.782 21.2493 46.8247 20.9533 46.8247 20.6387C46.8247 20.5 46.8167 20.3907 46.8007 20.3107C46.7847 20.2307 46.758 20.1613 46.7207 20.1027C46.486 20.172 46.2753 20.284 46.0887 20.4387C45.9073 20.5933 45.75 20.756 45.6167 20.9267ZM50.5559 19.9347C50.6092 19.9347 50.6706 19.9453 50.7399 19.9667C50.8146 19.9827 50.8812 20.0067 50.9399 20.0387C50.9986 20.0653 51.0466 20.0947 51.0839 20.1267C51.1266 20.1587 51.1479 20.188 51.1479 20.2147C51.0412 20.4387 50.9426 20.6653 50.8519 20.8947C50.7612 21.1187 50.6839 21.3347 50.6199 21.5427C50.5559 21.7507 50.5052 21.9453 50.4679 22.1267C50.4359 22.308 50.4199 22.4653 50.4199 22.5987C50.4199 22.748 50.4359 22.8733 50.4679 22.9747C50.4999 23.0707 50.5532 23.14 50.6279 23.1827C50.5639 23.2253 50.4812 23.26 50.3799 23.2867C50.2786 23.3133 50.1879 23.3267 50.1079 23.3267C49.8199 23.3267 49.6759 23.1293 49.6759 22.7347C49.6759 22.4307 49.7772 22.0147 49.9799 21.4867C49.8732 21.732 49.7506 21.964 49.6119 22.1827C49.4732 22.396 49.3319 22.5853 49.1879 22.7507C49.0439 22.916 48.8972 23.052 48.7479 23.1587C48.6039 23.26 48.4706 23.3213 48.3479 23.3427C48.1506 23.332 47.9906 23.2387 47.8679 23.0627C47.7452 22.8813 47.6839 22.652 47.6839 22.3747C47.6839 22.076 47.7479 21.7613 47.8759 21.4307C48.0039 21.1 48.1666 20.7933 48.3639 20.5107C48.5666 20.228 48.7852 19.9933 49.0199 19.8067C49.2546 19.6147 49.4812 19.5133 49.6999 19.5027C49.7532 19.5187 49.8119 19.5507 49.8759 19.5987C49.9452 19.6467 50.0092 19.7027 50.0679 19.7667C50.1319 19.8307 50.1852 19.8973 50.2279 19.9667C50.2706 20.0307 50.2946 20.0867 50.2999 20.1347C50.0866 20.1667 49.8652 20.2707 49.6359 20.4467C49.4119 20.6227 49.2066 20.836 49.0199 21.0867C48.8386 21.332 48.6892 21.596 48.5719 21.8787C48.4546 22.1613 48.3959 22.4253 48.3959 22.6707C48.3959 22.772 48.4332 22.836 48.5079 22.8627C48.6626 22.8307 48.8412 22.7 49.0439 22.4707C49.2466 22.236 49.4919 21.876 49.7799 21.3907C49.8332 21.2947 49.8919 21.188 49.9559 21.0707C50.0252 20.9533 50.0946 20.8307 50.1639 20.7027C50.2332 20.5747 50.2999 20.4467 50.3639 20.3187C50.4332 20.1853 50.4972 20.0573 50.5559 19.9347ZM51.5392 21.7587C51.5392 21.4547 51.6006 21.1613 51.7232 20.8787C51.8512 20.5907 52.0166 20.3373 52.2192 20.1187C52.4272 19.8947 52.6619 19.716 52.9232 19.5827C53.1899 19.444 53.4646 19.3747 53.7472 19.3747C54.0246 19.3747 54.2379 19.444 54.3872 19.5827C54.5366 19.7213 54.6112 19.9187 54.6112 20.1747C54.6112 20.2973 54.5926 20.4173 54.5552 20.5347C54.5232 20.6467 54.4779 20.748 54.4192 20.8387C54.3659 20.9293 54.3019 21.004 54.2272 21.0627C54.1526 21.116 54.0779 21.1427 54.0032 21.1427C53.9392 21.1427 53.8726 21.124 53.8032 21.0867C53.7392 21.044 53.6859 20.9907 53.6432 20.9267C54.0006 20.6013 54.1792 20.3053 54.1792 20.0387C54.1792 19.884 54.1179 19.8067 53.9952 19.8067C53.8886 19.8067 53.7552 19.8573 53.5952 19.9587C53.4352 20.06 53.2806 20.1933 53.1312 20.3587C52.9019 20.6147 52.7259 20.9 52.6032 21.2147C52.4859 21.524 52.4272 21.8493 52.4272 22.1907C52.4272 22.6227 52.5232 22.8813 52.7152 22.9667C52.7952 22.956 52.8886 22.932 52.9952 22.8947C53.1019 22.8573 53.2166 22.8093 53.3392 22.7507C53.4619 22.6867 53.5872 22.6147 53.7152 22.5347C53.8486 22.4547 53.9766 22.3693 54.0992 22.2787C54.1206 22.2947 54.1392 22.3187 54.1552 22.3507C54.1712 22.3827 54.1792 22.412 54.1792 22.4387C54.0886 22.5507 53.9846 22.66 53.8672 22.7667C53.7499 22.8733 53.6272 22.972 53.4992 23.0627C53.3712 23.148 53.2459 23.22 53.1232 23.2787C53.0059 23.3427 52.9019 23.3827 52.8112 23.3987C52.6352 23.3827 52.4699 23.3267 52.3152 23.2307C52.1606 23.14 52.0246 23.02 51.9072 22.8707C51.7952 22.7213 51.7046 22.5507 51.6352 22.3587C51.5712 22.1667 51.5392 21.9667 51.5392 21.7587ZM54.8426 23.0307C54.8426 22.844 54.8613 22.6253 54.8986 22.3747C54.9359 22.1187 54.9893 21.8467 55.0586 21.5587C55.1333 21.2707 55.2186 20.9693 55.3146 20.6547C55.4159 20.34 55.5279 20.0253 55.6506 19.7107C55.7573 19.428 55.8799 19.1427 56.0186 18.8547C56.1626 18.5667 56.3173 18.284 56.4826 18.0067C56.6479 17.7293 56.8186 17.4653 56.9946 17.2147C57.1759 16.964 57.3573 16.7347 57.5386 16.5267C57.6239 16.5267 57.7146 16.5373 57.8106 16.5587C57.9119 16.58 58.0079 16.6093 58.0986 16.6467C58.1946 16.6787 58.2799 16.7187 58.3546 16.7667C58.4346 16.8147 58.4986 16.8627 58.5466 16.9107C58.1466 17.3213 57.7866 17.7373 57.4666 18.1587C57.1466 18.5747 56.8933 18.9667 56.7066 19.3347C56.6053 19.5373 56.5119 19.7267 56.4266 19.9027C56.3466 20.0787 56.2719 20.2547 56.2026 20.4307C56.1333 20.6013 56.0693 20.7747 56.0106 20.9507C55.9573 21.1213 55.9066 21.3027 55.8586 21.4947C56.8826 20.188 57.6426 19.5347 58.1386 19.5347C58.2773 19.5347 58.4266 19.58 58.5866 19.6707C58.7466 19.7613 58.8879 19.884 59.0106 20.0387C58.8453 20.22 58.6746 20.4387 58.4986 20.6947C58.3226 20.9507 58.1599 21.2093 58.0106 21.4707C57.8666 21.7267 57.7466 21.9667 57.6506 22.1907C57.5599 22.4093 57.5146 22.572 57.5146 22.6787C57.5146 22.732 57.5226 22.7693 57.5386 22.7907C57.5546 22.8067 57.5893 22.8147 57.6426 22.8147C57.7226 22.8147 57.7866 22.804 57.8346 22.7827C57.8826 22.7613 57.9119 22.7507 57.9226 22.7507C57.9493 22.7933 57.9653 22.8227 57.9706 22.8387C57.9759 22.8547 57.9786 22.868 57.9786 22.8787C57.9786 22.9 57.9466 22.932 57.8826 22.9747C57.8186 23.012 57.7413 23.052 57.6506 23.0947C57.5653 23.132 57.4799 23.1667 57.3946 23.1987C57.3093 23.2307 57.2453 23.2467 57.2026 23.2467C57.1493 23.2467 57.0959 23.2307 57.0426 23.1987C56.9893 23.172 56.9413 23.1347 56.8986 23.0867C56.8613 23.0387 56.8293 22.9853 56.8026 22.9267C56.7813 22.868 56.7706 22.8067 56.7706 22.7427C56.7706 22.6627 56.7919 22.5453 56.8346 22.3907C56.8826 22.2307 56.9466 22.0467 57.0266 21.8387C57.1066 21.6253 57.2026 21.3933 57.3146 21.1427C57.4266 20.892 57.5466 20.636 57.6746 20.3747C57.6746 20.3533 57.6639 20.3427 57.6426 20.3427C57.6266 20.3427 57.5839 20.364 57.5146 20.4067C57.4506 20.4493 57.3893 20.492 57.3306 20.5347C57.1386 20.6787 56.9439 20.8573 56.7466 21.0707C56.5546 21.2787 56.3653 21.508 56.1786 21.7587C55.9973 22.0093 55.8239 22.276 55.6586 22.5587C55.4986 22.836 55.3599 23.116 55.2426 23.3987C55.2266 23.436 55.2026 23.4707 55.1706 23.5027C55.1386 23.5347 55.1119 23.5507 55.0906 23.5507C55.0746 23.5507 55.0506 23.532 55.0186 23.4947C54.9919 23.4573 54.9653 23.4093 54.9386 23.3507C54.9173 23.2973 54.8959 23.2413 54.8746 23.1827C54.8533 23.124 54.8426 23.0733 54.8426 23.0307ZM58.9914 22.6307C58.9914 22.5827 58.9941 22.524 58.9994 22.4547C59.0101 22.38 59.0261 22.284 59.0474 22.1667C59.0687 22.044 59.0954 21.8973 59.1274 21.7267C59.1647 21.556 59.2101 21.3507 59.2634 21.1107C59.2741 21.0573 59.2981 20.972 59.3354 20.8547C59.3727 20.7373 59.4207 20.6147 59.4794 20.4867C59.5434 20.3533 59.6181 20.2253 59.7034 20.1027C59.7941 19.98 59.9007 19.8893 60.0234 19.8307C60.1141 19.852 60.2341 19.908 60.3834 19.9987C60.5327 20.084 60.6607 20.204 60.7674 20.3587C60.6447 20.4973 60.5407 20.636 60.4554 20.7747C60.3754 20.9133 60.3007 21.0573 60.2314 21.2067C60.1674 21.356 60.1061 21.5107 60.0474 21.6707C59.9941 21.8307 59.9327 21.9987 59.8634 22.1747C59.8047 22.324 59.7514 22.4787 59.7034 22.6387C59.6554 22.7933 59.6287 22.9293 59.6234 23.0467C59.6234 23.1427 59.6207 23.2093 59.6154 23.2467C59.6154 23.2893 59.6021 23.3107 59.5754 23.3107C59.5541 23.3107 59.5114 23.2973 59.4474 23.2707C59.3834 23.244 59.3167 23.204 59.2474 23.1507C59.1834 23.092 59.1247 23.02 59.0714 22.9347C59.0181 22.8493 58.9914 22.748 58.9914 22.6307ZM60.5194 19.1587C60.5194 19.1267 60.5274 19.0787 60.5434 19.0147C60.5167 18.988 60.4927 18.948 60.4714 18.8947C60.4554 18.8413 60.4474 18.7933 60.4474 18.7507C60.4474 18.7027 60.4527 18.6387 60.4634 18.5587C60.4794 18.4733 60.4981 18.3827 60.5194 18.2867C60.5407 18.1907 60.5674 18.092 60.5994 17.9907C60.6314 17.884 60.6634 17.788 60.6954 17.7027C60.7594 17.7027 60.8367 17.7213 60.9274 17.7587C61.0234 17.7907 61.1194 17.836 61.2154 17.8947C61.3114 17.948 61.3994 18.0093 61.4794 18.0787C61.5594 18.1427 61.6207 18.204 61.6634 18.2627C61.6047 18.3213 61.5274 18.404 61.4314 18.5107C61.3354 18.612 61.2421 18.7213 61.1514 18.8387C61.0607 18.9507 60.9781 19.0573 60.9034 19.1587C60.8287 19.26 60.7807 19.332 60.7594 19.3747C60.6954 19.364 60.6394 19.3373 60.5914 19.2947C60.5434 19.2467 60.5194 19.2013 60.5194 19.1587ZM62.17 19.2867C62.3087 19.3293 62.4394 19.4253 62.562 19.5747C62.6847 19.7187 62.7754 19.8787 62.834 20.0547C62.7754 20.1987 62.6847 20.372 62.562 20.5747C62.4394 20.7773 62.3167 20.9853 62.194 21.1987C62.0714 21.4067 61.9594 21.6067 61.858 21.7987C61.762 21.9853 61.706 22.14 61.69 22.2627C61.7754 22.172 61.8687 22.068 61.97 21.9507C62.0767 21.828 62.178 21.708 62.274 21.5907C62.3754 21.468 62.4687 21.3587 62.554 21.2627C62.6394 21.1613 62.706 21.0867 62.754 21.0387C62.8554 20.932 62.9754 20.8093 63.114 20.6707C63.2527 20.5267 63.3967 20.3933 63.546 20.2707C63.7007 20.1427 63.8554 20.036 64.01 19.9507C64.1647 19.86 64.306 19.8147 64.434 19.8147C64.5727 19.8147 64.6874 19.8627 64.778 19.9587C64.874 20.0493 64.9487 20.1453 65.002 20.2467C65.002 20.2573 64.9807 20.2733 64.938 20.2947C64.9007 20.3107 64.8447 20.3613 64.77 20.4467C64.6954 20.5427 64.61 20.676 64.514 20.8467C64.4234 21.012 64.3327 21.1933 64.242 21.3907C64.1567 21.5827 64.0847 21.78 64.026 21.9827C63.9674 22.1853 63.938 22.3693 63.938 22.5347C63.938 22.668 63.954 22.7533 63.986 22.7907C64.0234 22.828 64.074 22.8467 64.138 22.8467C64.1967 22.8467 64.258 22.8333 64.322 22.8067C64.386 22.78 64.4367 22.7667 64.474 22.7667C64.4954 22.7773 64.5114 22.8013 64.522 22.8387C64.538 22.8707 64.546 22.9 64.546 22.9267C64.5034 22.964 64.4527 23.0013 64.394 23.0387C64.3354 23.076 64.274 23.1107 64.21 23.1427C64.146 23.1747 64.082 23.2013 64.018 23.2227C63.9594 23.244 63.906 23.2547 63.858 23.2547C63.7034 23.2547 63.5754 23.2307 63.474 23.1827C63.378 23.14 63.3007 23.0813 63.242 23.0067C63.1887 22.932 63.1514 22.844 63.13 22.7427C63.1087 22.636 63.098 22.524 63.098 22.4067C63.098 22.3427 63.1034 22.2707 63.114 22.1907C63.1247 22.1107 63.146 22.0173 63.178 21.9107C63.21 21.7987 63.2554 21.668 63.314 21.5187C63.3727 21.364 63.4474 21.18 63.538 20.9667C63.5274 20.9667 63.4554 21.004 63.322 21.0787C63.1887 21.1533 63.0447 21.268 62.89 21.4227C62.6394 21.6627 62.4127 21.9 62.21 22.1347C62.0127 22.3693 61.81 22.6307 61.602 22.9187C61.4847 23.084 61.3807 23.2227 61.29 23.3347C61.2047 23.452 61.13 23.5293 61.066 23.5667C60.954 23.5027 60.8714 23.412 60.818 23.2947C60.7647 23.1827 60.7247 23.0653 60.698 22.9427C60.698 22.8413 60.7114 22.7133 60.738 22.5587C60.77 22.404 60.81 22.2333 60.858 22.0467C60.9114 21.8547 60.9754 21.6547 61.05 21.4467C61.1247 21.2387 61.2074 21.0307 61.298 20.8227C61.5007 20.3533 61.6847 19.9853 61.85 19.7187C62.0207 19.452 62.1274 19.308 62.17 19.2867ZM63.5784 25.5507C63.5784 25.5187 63.589 25.4893 63.6104 25.4627C63.6317 25.436 63.6557 25.4093 63.6824 25.3827C63.7464 25.4413 63.8024 25.4867 63.8504 25.5187C63.893 25.5507 63.9357 25.5773 63.9784 25.5987C64.0157 25.62 64.0557 25.6333 64.0984 25.6387C64.141 25.644 64.1917 25.6467 64.2504 25.6467C64.5277 25.6467 64.7917 25.572 65.0424 25.4227C65.293 25.2787 65.5277 25.068 65.7464 24.7907C65.9704 24.5133 66.173 24.1747 66.3544 23.7747C66.5357 23.3747 66.6957 22.9213 66.8344 22.4147C66.7704 22.4787 66.6904 22.5507 66.5944 22.6307C66.5037 22.7053 66.4077 22.7773 66.3064 22.8467C66.205 22.916 66.1037 22.98 66.0024 23.0387C65.9064 23.0973 65.8237 23.14 65.7544 23.1667C65.6637 23.1507 65.5784 23.1133 65.4984 23.0547C65.4237 22.9907 65.357 22.9133 65.2984 22.8227C65.2397 22.732 65.1944 22.6307 65.1624 22.5187C65.1304 22.4013 65.1144 22.2787 65.1144 22.1507C65.1144 21.9427 65.1517 21.7293 65.2264 21.5107C65.3064 21.292 65.4104 21.0787 65.5384 20.8707C65.6664 20.6573 65.8157 20.4573 65.9864 20.2707C66.1624 20.084 66.3464 19.9213 66.5384 19.7827C66.7357 19.644 66.933 19.5347 67.1304 19.4547C67.333 19.3693 67.5304 19.3267 67.7224 19.3267C67.909 19.3267 68.0477 19.3667 68.1384 19.4467C68.2344 19.5213 68.3037 19.652 68.3464 19.8387C68.2877 19.8067 68.213 19.7907 68.1224 19.7907C67.9944 19.7907 67.845 19.8413 67.6744 19.9427C67.509 20.044 67.3384 20.1773 67.1624 20.3427C66.9917 20.5027 66.821 20.6893 66.6504 20.9027C66.4797 21.1107 66.3277 21.324 66.1944 21.5427C66.0664 21.7613 65.9597 21.9747 65.8744 22.1827C65.7944 22.3907 65.7544 22.5773 65.7544 22.7427C65.7544 22.78 65.757 22.804 65.7624 22.8147C65.7677 22.82 65.7757 22.8227 65.7864 22.8227C65.8344 22.8227 65.8984 22.796 65.9784 22.7427C66.0637 22.6893 66.157 22.6227 66.2584 22.5427C66.365 22.4573 66.4744 22.3613 66.5864 22.2547C66.6984 22.1427 66.805 22.0307 66.9064 21.9187C67.1357 21.6627 67.3437 21.3773 67.5304 21.0627C67.7224 20.7427 67.8744 20.4333 67.9864 20.1347C68.1304 20.1453 68.2584 20.1693 68.3704 20.2067C68.4824 20.244 68.5597 20.284 68.6024 20.3267C68.421 20.7427 68.2744 21.092 68.1624 21.3747C68.0557 21.6573 67.9624 21.908 67.8824 22.1267C67.7384 22.5107 67.6024 22.86 67.4744 23.1747C67.3517 23.4947 67.2237 23.788 67.0904 24.0547C66.9624 24.3267 66.821 24.5773 66.6664 24.8067C66.517 25.0413 66.3464 25.2653 66.1544 25.4787C66.0637 25.58 65.9597 25.668 65.8424 25.7427C65.7304 25.8227 65.613 25.8893 65.4904 25.9427C65.373 25.996 65.2557 26.036 65.1384 26.0627C65.0264 26.0893 64.9224 26.1027 64.8264 26.1027C64.6984 26.1027 64.5677 26.0867 64.4344 26.0547C64.301 26.028 64.1784 25.988 64.0664 25.9347C63.949 25.8867 63.8477 25.828 63.7624 25.7587C63.677 25.6947 63.6157 25.6253 63.5784 25.5507Z" fill="black"/>
</svg>
